<mxfile host="65bd71144e">
    <diagram id="gQEVzqmX4IWsrI7nIyBp" name="Page-1">
        <mxGraphModel dx="861" dy="435" grid="1" gridSize="10" guides="1" tooltips="1" connect="1" arrows="1" fold="1" page="1" pageScale="1" pageWidth="827" pageHeight="1169" math="0" shadow="0">
            <root>
                <mxCell id="0"/>
                <mxCell id="1" parent="0"/>
                <mxCell id="2" value="getValidSizeInput&lt;br&gt;(inputType)" style="strokeWidth=3;html=1;shape=mxgraph.flowchart.terminator;whiteSpace=wrap;fillColor=#d80073;fontColor=#ffffff;strokeColor=#A50040;" vertex="1" parent="1">
                    <mxGeometry x="176.67000000000002" y="10" width="116.67" height="70" as="geometry"/>
                </mxCell>
                <mxCell id="3" value="Declare&lt;br&gt;string sizeInput" style="whiteSpace=wrap;html=1;fillColor=#e51400;fontColor=#ffffff;strokeColor=#B20000;strokeWidth=3;" vertex="1" parent="1">
                    <mxGeometry x="175" y="130" width="120" height="60" as="geometry"/>
                </mxCell>
                <mxCell id="4" value="&lt;font style=&quot;color: rgb(255, 255, 255);&quot;&gt;Input:&lt;/font&gt;&lt;div&gt;&lt;font style=&quot;color: rgb(255, 255, 255);&quot;&gt;sizeInput&lt;/font&gt;&lt;/div&gt;" style="shape=parallelogram;perimeter=parallelogramPerimeter;whiteSpace=wrap;html=1;fixedSize=1;fillColor=#e3c800;fontColor=#FFFFFF;strokeColor=#B09500;strokeWidth=3;" vertex="1" parent="1">
                    <mxGeometry x="175.01" y="240" width="120" height="60" as="geometry"/>
                </mxCell>
                <mxCell id="6" value="std::transform(sizeInput.begin(), sizeInput.end(), sizeInput.begin() ::toupper)" style="whiteSpace=wrap;html=1;fillColor=#fa6800;fontColor=#FFFFFF;strokeColor=#C73500;strokeWidth=3;" vertex="1" parent="1">
                    <mxGeometry x="20" y="350" width="430" height="60" as="geometry"/>
                </mxCell>
                <mxCell id="7" value="cin.fail() ||&lt;br&gt;(sizeInput != &quot;S&quot; &amp;amp;&amp;amp;&lt;br&gt;sizeInput != &quot;M&quot; &amp;amp;&amp;amp;&lt;br&gt;sizeInput != &quot;L&quot; &amp;amp;&amp;amp;&lt;br&gt;sizeInput != &quot;XL&quot;)" style="rhombus;whiteSpace=wrap;html=1;fillColor=#6a00ff;fontColor=#ffffff;strokeColor=#3700CC;strokeWidth=3;" vertex="1" parent="1">
                    <mxGeometry x="145" y="460" width="180" height="180" as="geometry"/>
                </mxCell>
                <mxCell id="9" value="Prompt:&lt;br&gt;&quot;Please choose a valid &quot;, inputType, &quot; (S/M/L/XL):&amp;nbsp;" style="shape=parallelogram;perimeter=parallelogramPerimeter;whiteSpace=wrap;html=1;fixedSize=1;fillColor=#008a00;fontColor=#ffffff;strokeColor=#005700;strokeWidth=3;" vertex="1" parent="1">
                    <mxGeometry x="363.33" y="520" width="310" height="60" as="geometry"/>
                </mxCell>
                <mxCell id="10" value="&lt;font style=&quot;color: rgb(255, 255, 255);&quot;&gt;Input:&lt;br&gt;sizeInput&lt;/font&gt;" style="shape=parallelogram;perimeter=parallelogramPerimeter;whiteSpace=wrap;html=1;fixedSize=1;fillColor=#e3c800;fontColor=#000000;strokeColor=#B09500;strokeWidth=3;" vertex="1" parent="1">
                    <mxGeometry x="458.33" y="630" width="120" height="60" as="geometry"/>
                </mxCell>
                <mxCell id="11" value="std::transform(sizeInput.begin(), sizeInput.end(), sizeInput.begin() ::toupper)" style="whiteSpace=wrap;html=1;fillColor=#fa6800;fontColor=#FFFFFF;strokeColor=#C73500;strokeWidth=3;" vertex="1" parent="1">
                    <mxGeometry x="303.33" y="740" width="430" height="60" as="geometry"/>
                </mxCell>
                <mxCell id="12" value="return&lt;br&gt;sizeInput" style="strokeWidth=3;html=1;shape=mxgraph.flowchart.terminator;whiteSpace=wrap;fillColor=#d80073;fontColor=#ffffff;strokeColor=#A50040;" vertex="1" parent="1">
                    <mxGeometry x="176.67000000000002" y="850" width="116.67" height="70" as="geometry"/>
                </mxCell>
                <mxCell id="13" value="" style="edgeStyle=none;orthogonalLoop=1;jettySize=auto;html=1;strokeWidth=3;" edge="1" parent="1">
                    <mxGeometry width="100" relative="1" as="geometry">
                        <mxPoint x="234.5" y="80" as="sourcePoint"/>
                        <mxPoint x="234.5" y="130" as="targetPoint"/>
                        <Array as="points"/>
                    </mxGeometry>
                </mxCell>
                <mxCell id="14" value="" style="edgeStyle=none;orthogonalLoop=1;jettySize=auto;html=1;strokeWidth=3;" edge="1" parent="1">
                    <mxGeometry width="100" relative="1" as="geometry">
                        <mxPoint x="234.66" y="190" as="sourcePoint"/>
                        <mxPoint x="234.66" y="240" as="targetPoint"/>
                        <Array as="points"/>
                    </mxGeometry>
                </mxCell>
                <mxCell id="15" value="" style="edgeStyle=none;orthogonalLoop=1;jettySize=auto;html=1;strokeWidth=3;" edge="1" parent="1">
                    <mxGeometry width="100" relative="1" as="geometry">
                        <mxPoint x="234.66" y="300" as="sourcePoint"/>
                        <mxPoint x="234.66" y="350" as="targetPoint"/>
                        <Array as="points"/>
                    </mxGeometry>
                </mxCell>
                <mxCell id="16" value="" style="edgeStyle=none;orthogonalLoop=1;jettySize=auto;html=1;strokeWidth=3;" edge="1" parent="1">
                    <mxGeometry width="100" relative="1" as="geometry">
                        <mxPoint x="234.67" y="410" as="sourcePoint"/>
                        <mxPoint x="234.67" y="460" as="targetPoint"/>
                        <Array as="points"/>
                    </mxGeometry>
                </mxCell>
                <mxCell id="18" value="" style="edgeStyle=none;orthogonalLoop=1;jettySize=auto;html=1;strokeWidth=3;" edge="1" parent="1">
                    <mxGeometry width="100" relative="1" as="geometry">
                        <mxPoint x="518.04" y="580" as="sourcePoint"/>
                        <mxPoint x="518.04" y="630" as="targetPoint"/>
                        <Array as="points"/>
                    </mxGeometry>
                </mxCell>
                <mxCell id="19" value="" style="edgeStyle=none;orthogonalLoop=1;jettySize=auto;html=1;strokeWidth=3;" edge="1" parent="1">
                    <mxGeometry width="100" relative="1" as="geometry">
                        <mxPoint x="518.04" y="690" as="sourcePoint"/>
                        <mxPoint x="518.04" y="740" as="targetPoint"/>
                        <Array as="points"/>
                    </mxGeometry>
                </mxCell>
                <mxCell id="22" value="" style="edgeStyle=none;orthogonalLoop=1;jettySize=auto;html=1;strokeWidth=3;entryX=1;entryY=1;entryDx=0;entryDy=0;exitX=0;exitY=0.5;exitDx=0;exitDy=0;rounded=0;curved=0;" edge="1" parent="1" source="11" target="7">
                    <mxGeometry width="100" relative="1" as="geometry">
                        <mxPoint x="280" y="770" as="sourcePoint"/>
                        <mxPoint x="528.04" y="750" as="targetPoint"/>
                        <Array as="points">
                            <mxPoint x="280" y="770"/>
                        </Array>
                    </mxGeometry>
                </mxCell>
                <mxCell id="23" value="True" style="edgeStyle=none;orthogonalLoop=1;jettySize=auto;html=1;strokeWidth=3;exitX=1;exitY=0.5;exitDx=0;exitDy=0;entryX=0;entryY=0.5;entryDx=0;entryDy=0;" edge="1" parent="1" source="7" target="9">
                    <mxGeometry x="-0.3793" width="100" relative="1" as="geometry">
                        <mxPoint x="290" y="590" as="sourcePoint"/>
                        <mxPoint x="390" y="590" as="targetPoint"/>
                        <Array as="points"/>
                        <mxPoint as="offset"/>
                    </mxGeometry>
                </mxCell>
                <mxCell id="24" value="False" style="edgeStyle=none;orthogonalLoop=1;jettySize=auto;html=1;exitX=0.5;exitY=1;exitDx=0;exitDy=0;entryX=0.5;entryY=0;entryDx=0;entryDy=0;entryPerimeter=0;strokeWidth=3;" edge="1" parent="1" source="7" target="12">
                    <mxGeometry width="100" relative="1" as="geometry">
                        <mxPoint x="150" y="700" as="sourcePoint"/>
                        <mxPoint x="250" y="700" as="targetPoint"/>
                        <Array as="points"/>
                    </mxGeometry>
                </mxCell>
            </root>
        </mxGraphModel>
    </diagram>
</mxfile>